<mxfile host="Electron" agent="Mozilla/5.0 (Windows NT 10.0; Win64; x64) AppleWebKit/537.36 (KHTML, like Gecko) draw.io/28.0.6 Chrome/138.0.7204.100 Electron/37.2.3 Safari/537.36" version="28.0.6">
  <diagram name="Page-1" id="4uFjqn1CkRIhnSTEgl6w">
    <mxGraphModel dx="946" dy="710" grid="1" gridSize="10" guides="1" tooltips="1" connect="1" arrows="1" fold="1" page="1" pageScale="1" pageWidth="850" pageHeight="1100" math="0" shadow="0">
      <root>
        <mxCell id="0" />
        <mxCell id="1" parent="0" />
        <mxCell id="YJXjBjIaQ-v1Se_PqzBe-1" value="&lt;font style=&quot;font-size: 23px;&quot;&gt;&lt;b&gt;DATA FLOW DIAGRAM&lt;/b&gt;&lt;/font&gt;" style="rounded=0;whiteSpace=wrap;html=1;strokeColor=none;fillColor=none;" vertex="1" parent="1">
          <mxGeometry x="10" y="30" width="260" height="30" as="geometry" />
        </mxCell>
        <mxCell id="YJXjBjIaQ-v1Se_PqzBe-2" value="" style="image;aspect=fixed;html=1;points=[];align=center;fontSize=12;image=img/lib/azure2/general/Folder_Blank.svg;" vertex="1" parent="1">
          <mxGeometry x="43" y="207" width="69" height="56.00000000000001" as="geometry" />
        </mxCell>
        <mxCell id="YJXjBjIaQ-v1Se_PqzBe-3" value="" style="image;aspect=fixed;html=1;points=[];align=center;fontSize=12;image=img/lib/azure2/general/Folder_Blank.svg;" vertex="1" parent="1">
          <mxGeometry x="41" y="360" width="69" height="56.00000000000001" as="geometry" />
        </mxCell>
        <mxCell id="YJXjBjIaQ-v1Se_PqzBe-5" value="&lt;font style=&quot;font-size: 16px;&quot;&gt;&lt;b&gt;CRM&lt;/b&gt;&lt;/font&gt;" style="rounded=1;whiteSpace=wrap;html=1;fillColor=none;strokeColor=none;" vertex="1" parent="1">
          <mxGeometry x="41" y="263" width="70" height="20" as="geometry" />
        </mxCell>
        <mxCell id="YJXjBjIaQ-v1Se_PqzBe-6" value="&lt;span style=&quot;font-size: 16px;&quot;&gt;&lt;b&gt;ERP&lt;/b&gt;&lt;/span&gt;" style="rounded=1;whiteSpace=wrap;html=1;strokeColor=none;fillColor=none;" vertex="1" parent="1">
          <mxGeometry x="40" y="416" width="70" height="20" as="geometry" />
        </mxCell>
        <mxCell id="YJXjBjIaQ-v1Se_PqzBe-7" value="" style="rounded=0;whiteSpace=wrap;html=1;fillColor=none;dashed=1;" vertex="1" parent="1">
          <mxGeometry x="10" y="130" width="130" height="390" as="geometry" />
        </mxCell>
        <mxCell id="YJXjBjIaQ-v1Se_PqzBe-8" value="&lt;span style=&quot;font-size: 13px;&quot;&gt;&lt;b&gt;Sources&lt;/b&gt;&lt;/span&gt;" style="rounded=1;whiteSpace=wrap;html=1;fillColor=default;strokeColor=none;" vertex="1" parent="1">
          <mxGeometry x="35" y="120" width="75" height="20" as="geometry" />
        </mxCell>
        <mxCell id="YJXjBjIaQ-v1Se_PqzBe-9" value="&lt;b&gt;crm_cust_info&lt;/b&gt;" style="rounded=1;whiteSpace=wrap;html=1;fillColor=#ffe6cc;strokeColor=#d79b00;" vertex="1" parent="1">
          <mxGeometry x="250" y="166" width="110" height="30" as="geometry" />
        </mxCell>
        <mxCell id="YJXjBjIaQ-v1Se_PqzBe-10" value="&lt;b&gt;crm_sales_details&lt;/b&gt;" style="rounded=1;whiteSpace=wrap;html=1;fillColor=#ffe6cc;strokeColor=#d79b00;" vertex="1" parent="1">
          <mxGeometry x="250" y="274" width="110" height="30" as="geometry" />
        </mxCell>
        <mxCell id="YJXjBjIaQ-v1Se_PqzBe-11" value="&lt;b&gt;crm_prd_info&lt;/b&gt;" style="rounded=1;whiteSpace=wrap;html=1;fillColor=#ffe6cc;strokeColor=#d79b00;" vertex="1" parent="1">
          <mxGeometry x="250" y="220" width="110" height="30" as="geometry" />
        </mxCell>
        <mxCell id="YJXjBjIaQ-v1Se_PqzBe-12" value="&lt;b&gt;erp_cust_az12&lt;/b&gt;" style="rounded=1;whiteSpace=wrap;html=1;fillColor=#ffe6cc;strokeColor=#d79b00;" vertex="1" parent="1">
          <mxGeometry x="250" y="330" width="110" height="30" as="geometry" />
        </mxCell>
        <mxCell id="YJXjBjIaQ-v1Se_PqzBe-13" value="&lt;b&gt;erp_px_cat_g1v2&lt;/b&gt;" style="rounded=1;whiteSpace=wrap;html=1;fillColor=#ffe6cc;strokeColor=#d79b00;" vertex="1" parent="1">
          <mxGeometry x="250" y="436" width="110" height="30" as="geometry" />
        </mxCell>
        <mxCell id="YJXjBjIaQ-v1Se_PqzBe-14" value="&lt;b&gt;erp_loc_a101&lt;/b&gt;" style="rounded=1;whiteSpace=wrap;html=1;fillColor=#ffe6cc;strokeColor=#d79b00;" vertex="1" parent="1">
          <mxGeometry x="250" y="380" width="110" height="30" as="geometry" />
        </mxCell>
        <mxCell id="YJXjBjIaQ-v1Se_PqzBe-15" value="&lt;b&gt;crm_cust_info&lt;/b&gt;" style="rounded=1;whiteSpace=wrap;html=1;fillColor=#f5f5f5;fontColor=#333333;strokeColor=#666666;" vertex="1" parent="1">
          <mxGeometry x="470" y="166" width="110" height="27" as="geometry" />
        </mxCell>
        <mxCell id="YJXjBjIaQ-v1Se_PqzBe-16" value="&lt;b&gt;crm_sales_details&lt;/b&gt;" style="rounded=1;whiteSpace=wrap;html=1;fillColor=#f5f5f5;fontColor=#333333;strokeColor=#666666;" vertex="1" parent="1">
          <mxGeometry x="470" y="274" width="110" height="30" as="geometry" />
        </mxCell>
        <mxCell id="YJXjBjIaQ-v1Se_PqzBe-17" value="&lt;b&gt;crm_prd_info&lt;/b&gt;" style="rounded=1;whiteSpace=wrap;html=1;fillColor=#f5f5f5;fontColor=#333333;strokeColor=#666666;" vertex="1" parent="1">
          <mxGeometry x="470" y="220" width="110" height="30" as="geometry" />
        </mxCell>
        <mxCell id="YJXjBjIaQ-v1Se_PqzBe-18" value="&lt;b&gt;erp_cust_az12&lt;/b&gt;" style="rounded=1;whiteSpace=wrap;html=1;fillColor=#f5f5f5;fontColor=#333333;strokeColor=#666666;" vertex="1" parent="1">
          <mxGeometry x="470" y="330" width="110" height="30" as="geometry" />
        </mxCell>
        <mxCell id="YJXjBjIaQ-v1Se_PqzBe-19" value="&lt;b&gt;erp_px_cat_g1v2&lt;/b&gt;" style="rounded=1;whiteSpace=wrap;html=1;fillColor=#f5f5f5;fontColor=#333333;strokeColor=#666666;" vertex="1" parent="1">
          <mxGeometry x="470" y="436" width="110" height="30" as="geometry" />
        </mxCell>
        <mxCell id="YJXjBjIaQ-v1Se_PqzBe-20" value="&lt;b&gt;erp_loc_a101&lt;/b&gt;" style="rounded=1;whiteSpace=wrap;html=1;fillColor=#f5f5f5;fontColor=#333333;strokeColor=#666666;" vertex="1" parent="1">
          <mxGeometry x="470" y="380" width="110" height="30" as="geometry" />
        </mxCell>
        <mxCell id="YJXjBjIaQ-v1Se_PqzBe-23" value="" style="endArrow=classic;html=1;rounded=0;entryX=0;entryY=0.5;entryDx=0;entryDy=0;" edge="1" parent="1" target="YJXjBjIaQ-v1Se_PqzBe-11">
          <mxGeometry width="50" height="50" relative="1" as="geometry">
            <mxPoint x="110" y="235" as="sourcePoint" />
            <mxPoint x="180" y="207" as="targetPoint" />
            <Array as="points">
              <mxPoint x="180" y="235" />
            </Array>
          </mxGeometry>
        </mxCell>
        <mxCell id="YJXjBjIaQ-v1Se_PqzBe-24" value="" style="endArrow=classic;html=1;rounded=0;entryX=0;entryY=0.5;entryDx=0;entryDy=0;" edge="1" parent="1" target="YJXjBjIaQ-v1Se_PqzBe-9">
          <mxGeometry width="50" height="50" relative="1" as="geometry">
            <mxPoint x="170" y="240" as="sourcePoint" />
            <mxPoint x="220" y="170" as="targetPoint" />
            <Array as="points">
              <mxPoint x="170" y="180" />
            </Array>
          </mxGeometry>
        </mxCell>
        <mxCell id="YJXjBjIaQ-v1Se_PqzBe-25" value="" style="endArrow=classic;html=1;rounded=0;entryX=0;entryY=0.5;entryDx=0;entryDy=0;" edge="1" parent="1" target="YJXjBjIaQ-v1Se_PqzBe-10">
          <mxGeometry width="50" height="50" relative="1" as="geometry">
            <mxPoint x="170" y="240" as="sourcePoint" />
            <mxPoint x="200" y="254" as="targetPoint" />
            <Array as="points">
              <mxPoint x="170" y="289" />
            </Array>
          </mxGeometry>
        </mxCell>
        <mxCell id="YJXjBjIaQ-v1Se_PqzBe-26" value="" style="endArrow=classic;html=1;rounded=0;entryX=0;entryY=0.5;entryDx=0;entryDy=0;" edge="1" parent="1">
          <mxGeometry width="50" height="50" relative="1" as="geometry">
            <mxPoint x="110" y="394.5" as="sourcePoint" />
            <mxPoint x="250" y="394.5" as="targetPoint" />
            <Array as="points">
              <mxPoint x="180" y="394.5" />
            </Array>
          </mxGeometry>
        </mxCell>
        <mxCell id="YJXjBjIaQ-v1Se_PqzBe-27" value="" style="endArrow=classic;html=1;rounded=0;entryX=0;entryY=0.5;entryDx=0;entryDy=0;" edge="1" parent="1">
          <mxGeometry width="50" height="50" relative="1" as="geometry">
            <mxPoint x="170" y="390" as="sourcePoint" />
            <mxPoint x="250" y="450.5" as="targetPoint" />
            <Array as="points">
              <mxPoint x="170" y="450.5" />
            </Array>
          </mxGeometry>
        </mxCell>
        <mxCell id="YJXjBjIaQ-v1Se_PqzBe-28" value="" style="endArrow=classic;html=1;rounded=0;entryX=0;entryY=0.5;entryDx=0;entryDy=0;" edge="1" parent="1">
          <mxGeometry width="50" height="50" relative="1" as="geometry">
            <mxPoint x="170" y="400" as="sourcePoint" />
            <mxPoint x="250" y="341" as="targetPoint" />
            <Array as="points">
              <mxPoint x="170" y="340" />
            </Array>
          </mxGeometry>
        </mxCell>
        <mxCell id="YJXjBjIaQ-v1Se_PqzBe-29" value="" style="rounded=1;whiteSpace=wrap;html=1;fillColor=none;strokeColor=#d79b00;strokeWidth=3;" vertex="1" parent="1">
          <mxGeometry x="225" y="150" width="160" height="370" as="geometry" />
        </mxCell>
        <mxCell id="YJXjBjIaQ-v1Se_PqzBe-30" value="" style="rounded=1;whiteSpace=wrap;html=1;fillColor=none;fontColor=#333333;strokeColor=#666666;strokeWidth=3;" vertex="1" parent="1">
          <mxGeometry x="440" y="150" width="160" height="370" as="geometry" />
        </mxCell>
        <mxCell id="YJXjBjIaQ-v1Se_PqzBe-31" value="" style="endArrow=classic;html=1;rounded=0;entryX=0;entryY=0.5;entryDx=0;entryDy=0;" edge="1" parent="1" target="YJXjBjIaQ-v1Se_PqzBe-19">
          <mxGeometry width="50" height="50" relative="1" as="geometry">
            <mxPoint x="360" y="450.5" as="sourcePoint" />
            <mxPoint x="460" y="450.5" as="targetPoint" />
            <Array as="points">
              <mxPoint x="390" y="450.5" />
            </Array>
          </mxGeometry>
        </mxCell>
        <mxCell id="YJXjBjIaQ-v1Se_PqzBe-32" value="" style="endArrow=classic;html=1;rounded=0;entryX=0;entryY=0.5;entryDx=0;entryDy=0;" edge="1" parent="1">
          <mxGeometry width="50" height="50" relative="1" as="geometry">
            <mxPoint x="360" y="179" as="sourcePoint" />
            <mxPoint x="470" y="179.5" as="targetPoint" />
            <Array as="points">
              <mxPoint x="390" y="179" />
            </Array>
          </mxGeometry>
        </mxCell>
        <mxCell id="YJXjBjIaQ-v1Se_PqzBe-33" value="" style="endArrow=classic;html=1;rounded=0;entryX=0;entryY=0.5;entryDx=0;entryDy=0;" edge="1" parent="1">
          <mxGeometry width="50" height="50" relative="1" as="geometry">
            <mxPoint x="360" y="234.5" as="sourcePoint" />
            <mxPoint x="470" y="235" as="targetPoint" />
            <Array as="points">
              <mxPoint x="390" y="234.5" />
            </Array>
          </mxGeometry>
        </mxCell>
        <mxCell id="YJXjBjIaQ-v1Se_PqzBe-34" value="" style="endArrow=classic;html=1;rounded=0;entryX=0;entryY=0.5;entryDx=0;entryDy=0;" edge="1" parent="1">
          <mxGeometry width="50" height="50" relative="1" as="geometry">
            <mxPoint x="360" y="290" as="sourcePoint" />
            <mxPoint x="470" y="290.5" as="targetPoint" />
            <Array as="points">
              <mxPoint x="390" y="290" />
            </Array>
          </mxGeometry>
        </mxCell>
        <mxCell id="YJXjBjIaQ-v1Se_PqzBe-35" value="" style="endArrow=classic;html=1;rounded=0;entryX=0;entryY=0.5;entryDx=0;entryDy=0;" edge="1" parent="1">
          <mxGeometry width="50" height="50" relative="1" as="geometry">
            <mxPoint x="360" y="344.5" as="sourcePoint" />
            <mxPoint x="470" y="345" as="targetPoint" />
            <Array as="points">
              <mxPoint x="390" y="344.5" />
            </Array>
          </mxGeometry>
        </mxCell>
        <mxCell id="YJXjBjIaQ-v1Se_PqzBe-36" value="" style="endArrow=classic;html=1;rounded=0;entryX=0;entryY=0.5;entryDx=0;entryDy=0;" edge="1" parent="1">
          <mxGeometry width="50" height="50" relative="1" as="geometry">
            <mxPoint x="360" y="394.5" as="sourcePoint" />
            <mxPoint x="470" y="395" as="targetPoint" />
            <Array as="points">
              <mxPoint x="390" y="394.5" />
            </Array>
          </mxGeometry>
        </mxCell>
        <mxCell id="YJXjBjIaQ-v1Se_PqzBe-37" value="&lt;b&gt;&lt;font style=&quot;font-size: 14px;&quot;&gt;BRONZE_LAYER&lt;/font&gt;&lt;/b&gt;" style="rounded=1;whiteSpace=wrap;html=1;fillColor=#ffe6cc;strokeColor=#d79b00;" vertex="1" parent="1">
          <mxGeometry x="245" y="120" width="120" height="30" as="geometry" />
        </mxCell>
        <mxCell id="YJXjBjIaQ-v1Se_PqzBe-38" value="&lt;span style=&quot;font-size: 14px;&quot;&gt;&lt;b&gt;SILVER_LAYER&lt;/b&gt;&lt;/span&gt;" style="rounded=1;whiteSpace=wrap;html=1;fillColor=#f5f5f5;fontColor=#333333;strokeColor=#666666;" vertex="1" parent="1">
          <mxGeometry x="460" y="120" width="120" height="30" as="geometry" />
        </mxCell>
        <mxCell id="YJXjBjIaQ-v1Se_PqzBe-39" value="&lt;b&gt;fact_sales&lt;/b&gt;" style="rounded=1;whiteSpace=wrap;html=1;fillColor=#fff2cc;strokeColor=#d6b656;" vertex="1" parent="1">
          <mxGeometry x="680" y="274" width="130" height="30" as="geometry" />
        </mxCell>
        <mxCell id="YJXjBjIaQ-v1Se_PqzBe-40" value="&lt;b&gt;dim_customers&lt;/b&gt;" style="rounded=1;whiteSpace=wrap;html=1;fillColor=#fff2cc;strokeColor=#d6b656;" vertex="1" parent="1">
          <mxGeometry x="680" y="207" width="130" height="30" as="geometry" />
        </mxCell>
        <mxCell id="YJXjBjIaQ-v1Se_PqzBe-41" value="&lt;b&gt;dim_products&lt;/b&gt;" style="rounded=1;whiteSpace=wrap;html=1;fillColor=#fff2cc;strokeColor=#d6b656;" vertex="1" parent="1">
          <mxGeometry x="680" y="373" width="130" height="30" as="geometry" />
        </mxCell>
        <mxCell id="YJXjBjIaQ-v1Se_PqzBe-44" value="" style="endArrow=classic;html=1;rounded=0;entryX=0;entryY=0.5;entryDx=0;entryDy=0;" edge="1" parent="1" target="YJXjBjIaQ-v1Se_PqzBe-40">
          <mxGeometry width="50" height="50" relative="1" as="geometry">
            <mxPoint x="580" y="390" as="sourcePoint" />
            <mxPoint x="630" y="340" as="targetPoint" />
          </mxGeometry>
        </mxCell>
        <mxCell id="YJXjBjIaQ-v1Se_PqzBe-45" value="" style="endArrow=classic;html=1;rounded=0;exitX=1;exitY=0.5;exitDx=0;exitDy=0;entryX=0;entryY=0.5;entryDx=0;entryDy=0;" edge="1" parent="1" source="YJXjBjIaQ-v1Se_PqzBe-15" target="YJXjBjIaQ-v1Se_PqzBe-40">
          <mxGeometry width="50" height="50" relative="1" as="geometry">
            <mxPoint x="580" y="258" as="sourcePoint" />
            <mxPoint x="680" y="190" as="targetPoint" />
          </mxGeometry>
        </mxCell>
        <mxCell id="YJXjBjIaQ-v1Se_PqzBe-46" value="" style="endArrow=classic;html=1;rounded=0;entryX=0;entryY=0.5;entryDx=0;entryDy=0;" edge="1" parent="1" target="YJXjBjIaQ-v1Se_PqzBe-40">
          <mxGeometry width="50" height="50" relative="1" as="geometry">
            <mxPoint x="580" y="348" as="sourcePoint" />
            <mxPoint x="670" y="210" as="targetPoint" />
          </mxGeometry>
        </mxCell>
        <mxCell id="YJXjBjIaQ-v1Se_PqzBe-47" value="" style="endArrow=classic;html=1;rounded=0;exitX=1;exitY=0.5;exitDx=0;exitDy=0;entryX=0;entryY=0.5;entryDx=0;entryDy=0;" edge="1" parent="1" target="YJXjBjIaQ-v1Se_PqzBe-41">
          <mxGeometry width="50" height="50" relative="1" as="geometry">
            <mxPoint x="580" y="454" as="sourcePoint" />
            <mxPoint x="680" y="466" as="targetPoint" />
          </mxGeometry>
        </mxCell>
        <mxCell id="YJXjBjIaQ-v1Se_PqzBe-48" value="" style="endArrow=classic;html=1;rounded=0;exitX=1;exitY=0.5;exitDx=0;exitDy=0;entryX=0;entryY=0.25;entryDx=0;entryDy=0;" edge="1" parent="1" target="YJXjBjIaQ-v1Se_PqzBe-41">
          <mxGeometry width="50" height="50" relative="1" as="geometry">
            <mxPoint x="580" y="236" as="sourcePoint" />
            <mxPoint x="690" y="390" as="targetPoint" />
          </mxGeometry>
        </mxCell>
        <mxCell id="YJXjBjIaQ-v1Se_PqzBe-49" value="" style="endArrow=classic;html=1;rounded=0;exitX=1;exitY=0.5;exitDx=0;exitDy=0;entryX=0;entryY=0.5;entryDx=0;entryDy=0;" edge="1" parent="1" target="YJXjBjIaQ-v1Se_PqzBe-39">
          <mxGeometry width="50" height="50" relative="1" as="geometry">
            <mxPoint x="580" y="289" as="sourcePoint" />
            <mxPoint x="680" y="230" as="targetPoint" />
          </mxGeometry>
        </mxCell>
        <mxCell id="YJXjBjIaQ-v1Se_PqzBe-50" value="" style="rounded=1;whiteSpace=wrap;html=1;fillColor=none;strokeColor=#d6b656;strokeWidth=3;" vertex="1" parent="1">
          <mxGeometry x="660" y="150" width="160" height="370" as="geometry" />
        </mxCell>
        <mxCell id="YJXjBjIaQ-v1Se_PqzBe-51" value="&lt;span style=&quot;font-size: 14px;&quot;&gt;&lt;b&gt;GOLD_LAYER&lt;/b&gt;&lt;/span&gt;" style="rounded=1;whiteSpace=wrap;html=1;fillColor=#fff2cc;strokeColor=#d6b656;" vertex="1" parent="1">
          <mxGeometry x="680" y="120" width="120" height="30" as="geometry" />
        </mxCell>
      </root>
    </mxGraphModel>
  </diagram>
</mxfile>
